<svg width="24" height="24" viewBox="0 0 24 24" fill="none" xmlns="http://www.w3.org/2000/svg">
<path fill-rule="evenodd" clip-rule="evenodd" d="M11.9989 -1.90735e-05C5.37254 -1.90735e-05 0 5.29105 0 11.8184C0 17.0398 3.43804 21.4689 8.20651 23.0324C8.8069 23.1405 9.02569 22.7756 9.02569 22.4622C9.02569 22.1821 9.01538 21.4385 9.00948 20.4525C5.67163 21.1664 4.96737 18.868 4.96737 18.868C4.4215 17.5034 3.63473 17.1399 3.63473 17.1399C2.5452 16.4064 3.71724 16.4209 3.71724 16.4209C4.9217 16.5051 5.55523 17.639 5.55523 17.639C6.62562 19.4448 8.36416 18.9232 9.04779 18.6214C9.15682 17.8574 9.46622 17.3365 9.80951 17.0412C7.14497 16.743 4.34341 15.7288 4.34341 11.2002C4.34341 9.9103 4.8112 8.85542 5.57881 8.02908C5.45505 7.73017 5.04325 6.52875 5.69594 4.90145C5.69594 4.90145 6.7037 4.58368 8.99622 6.11304C9.95316 5.85113 10.9801 5.71981 12.0004 5.71546C13.0192 5.71981 14.0461 5.85113 15.0045 6.11304C17.2956 4.58368 18.3011 4.90145 18.3011 4.90145C18.956 6.52875 18.5442 7.73017 18.4205 8.02908C19.1895 8.85542 19.6544 9.9103 19.6544 11.2002C19.6544 15.7404 16.8484 16.7394 14.175 17.0318C14.606 17.3967 14.9898 18.1179 14.9898 19.2206C14.9898 20.8 14.975 22.0747 14.975 22.4622C14.975 22.7785 15.1909 23.1463 15.8001 23.0309C20.5649 21.4646 24 17.0383 24 11.8184C24 5.29105 18.6267 -1.90735e-05 11.9989 -1.90735e-05Z" fill="white"/>
</svg>
