<svg width="140" height="48" viewBox="0 0 140 48" fill="none" xmlns="http://www.w3.org/2000/svg">
<rect width="140" height="48" rx="4" fill="#24292E"/>
<path d="M67.1841 29.16C66.1921 29.16 65.3281 28.9413 64.5921 28.504C63.8668 28.0667 63.3015 27.4427 62.8961 26.632C62.5015 25.8213 62.3041 24.8507 62.3041 23.72C62.3041 22.6 62.5175 21.6347 62.9441 20.824C63.3708 20.0133 63.9628 19.3893 64.7201 18.952C65.4881 18.504 66.3788 18.28 67.3921 18.28C68.4908 18.28 69.3761 18.488 70.0481 18.904C70.7308 19.3093 71.2748 19.9333 71.6801 20.776L70.0961 21.528C69.8935 20.9413 69.5575 20.504 69.0881 20.216C68.6295 19.9173 68.0695 19.768 67.4081 19.768C66.4161 19.768 65.6161 20.1147 65.0081 20.808C64.4001 21.5013 64.0961 22.472 64.0961 23.72C64.0961 24.9893 64.3735 25.9707 64.9281 26.664C65.4935 27.3467 66.3201 27.688 67.4081 27.688C68.1975 27.688 68.8641 27.4907 69.4081 27.096C69.9521 26.6907 70.2241 26.0773 70.2241 25.256V24.952H67.1521V23.56H71.7441V29H70.4641L70.4001 27.608C70.0908 28.1093 69.6641 28.4933 69.1201 28.76C68.5868 29.0267 67.9415 29.16 67.1841 29.16ZM75.0983 19.656C74.7249 19.656 74.4369 19.5653 74.2343 19.384C74.0423 19.192 73.9463 18.9253 73.9463 18.584C73.9463 18.2427 74.0423 17.9813 74.2343 17.8C74.4369 17.6187 74.7249 17.528 75.0983 17.528C75.4609 17.528 75.7383 17.6187 75.9303 17.8C76.1329 17.9813 76.2343 18.2427 76.2343 18.584C76.2343 18.9253 76.1329 19.192 75.9303 19.384C75.7383 19.5653 75.4609 19.656 75.0983 19.656ZM75.9463 21V29H74.2343V21H75.9463ZM83.7129 21V22.344H80.9609V26.6C80.9609 26.984 81.0675 27.272 81.2809 27.464C81.4942 27.6453 81.7715 27.736 82.1129 27.736C82.4115 27.736 82.6622 27.6933 82.8649 27.608C83.0782 27.512 83.2755 27.384 83.4569 27.224L83.8409 28.472C83.5955 28.6853 83.2915 28.856 82.9289 28.984C82.5769 29.1013 82.1822 29.16 81.7449 29.16C81.0409 29.16 80.4489 28.9893 79.9689 28.648C79.4889 28.296 79.2489 27.7093 79.2489 26.888V22.344H77.7129V21H79.2489V19.128L80.9609 18.648V21H83.7129ZM87.3581 18.44V22.92H92.5741V18.44H94.3021V29H92.5741V24.392H87.3581V29H85.6461V18.44H87.3581ZM99.926 29.16C99.4033 29.16 98.918 29.064 98.47 28.872C98.0327 28.68 97.6807 28.3707 97.414 27.944C97.1473 27.5173 97.014 26.9627 97.014 26.28V21H98.726V25.848C98.726 26.5733 98.8753 27.0747 99.174 27.352C99.4833 27.6187 99.9207 27.752 100.486 27.752C100.849 27.752 101.19 27.672 101.51 27.512C101.83 27.3413 102.086 27.08 102.278 26.728C102.481 26.3653 102.582 25.9013 102.582 25.336V21H104.294V29H102.79L102.71 27.704C102.433 28.2053 102.059 28.5733 101.59 28.808C101.121 29.0427 100.566 29.16 99.926 29.16ZM111.257 29.16C110.638 29.16 110.089 29.0053 109.609 28.696C109.139 28.376 108.787 27.9653 108.553 27.464L108.473 29H106.969V17.4H108.681V22.312C108.926 21.8747 109.273 21.5227 109.721 21.256C110.169 20.9787 110.697 20.84 111.305 20.84C111.955 20.84 112.542 21.0053 113.065 21.336C113.598 21.6667 114.019 22.1467 114.329 22.776C114.649 23.3947 114.809 24.1413 114.809 25.016C114.809 25.88 114.649 26.6213 114.329 27.24C114.019 27.8587 113.593 28.3333 113.049 28.664C112.515 28.9947 111.918 29.16 111.257 29.16ZM110.889 27.784C111.582 27.784 112.121 27.5387 112.505 27.048C112.899 26.5467 113.097 25.864 113.097 25C113.097 24.136 112.905 23.4587 112.521 22.968C112.137 22.4773 111.598 22.232 110.905 22.232C110.233 22.232 109.694 22.488 109.289 23C108.883 23.5013 108.681 24.1787 108.681 25.032C108.681 25.8853 108.883 26.5573 109.289 27.048C109.694 27.5387 110.227 27.784 110.889 27.784Z" fill="white"/>
<path fill-rule="evenodd" clip-rule="evenodd" d="M24.9989 12.0001C18.3725 12.0001 13 17.2912 13 23.8185C13 29.0399 16.438 33.4691 21.2065 35.0325C21.8069 35.1406 22.0257 34.7757 22.0257 34.4623C22.0257 34.1822 22.0154 33.4386 22.0095 32.4526C18.6716 33.1665 17.9674 30.8682 17.9674 30.8682C17.4215 29.5035 16.6347 29.14 16.6347 29.14C15.5452 28.4065 16.7172 28.421 16.7172 28.421C17.9217 28.5052 18.5552 29.6392 18.5552 29.6392C19.6256 31.4449 21.3642 30.9233 22.0478 30.6215C22.1568 29.8575 22.4662 29.3366 22.8095 29.0413C20.145 28.7432 17.3434 27.7289 17.3434 23.2004C17.3434 21.9104 17.8112 20.8555 18.5788 20.0292C18.455 19.7303 18.0432 18.5289 18.6959 16.9016C18.6959 16.9016 19.7037 16.5838 21.9962 18.1132C22.9532 17.8513 23.9801 17.7199 25.0004 17.7156C26.0192 17.7199 27.0461 17.8513 28.0045 18.1132C30.2956 16.5838 31.3011 16.9016 31.3011 16.9016C31.956 18.5289 31.5442 19.7303 31.4205 20.0292C32.1895 20.8555 32.6544 21.9104 32.6544 23.2004C32.6544 27.7405 29.8484 28.7395 27.175 29.0319C27.606 29.3968 27.9898 30.118 27.9898 31.2207C27.9898 32.8002 27.975 34.0749 27.975 34.4623C27.975 34.7786 28.1909 35.1464 28.8001 35.0311C33.5649 33.4647 37 29.0384 37 23.8185C37 17.2912 31.6267 12.0001 24.9989 12.0001Z" fill="white"/>
</svg>
