<svg width="141" height="48" viewBox="0 0 141 48" fill="none" xmlns="http://www.w3.org/2000/svg">
<rect width="141" height="48" rx="4" fill="#4285F4"/>
<path d="M73.5513 29.16C72.5593 29.16 71.6953 28.9413 70.9593 28.504C70.234 28.0667 69.6686 27.4427 69.2633 26.632C68.8686 25.8213 68.6713 24.8507 68.6713 23.72C68.6713 22.6 68.8846 21.6347 69.3113 20.824C69.738 20.0133 70.33 19.3893 71.0873 18.952C71.8553 18.504 72.746 18.28 73.7593 18.28C74.858 18.28 75.7433 18.488 76.4153 18.904C77.098 19.3093 77.642 19.9333 78.0473 20.776L76.4633 21.528C76.2606 20.9413 75.9246 20.504 75.4553 20.216C74.9966 19.9173 74.4366 19.768 73.7753 19.768C72.7833 19.768 71.9833 20.1147 71.3753 20.808C70.7673 21.5013 70.4633 22.472 70.4633 23.72C70.4633 24.9893 70.7406 25.9707 71.2953 26.664C71.8606 27.3467 72.6873 27.688 73.7753 27.688C74.5646 27.688 75.2313 27.4907 75.7753 27.096C76.3193 26.6907 76.5913 26.0773 76.5913 25.256V24.952H73.5193V23.56H78.1113V29H76.8313L76.7673 27.608C76.458 28.1093 76.0313 28.4933 75.4873 28.76C74.954 29.0267 74.3086 29.16 73.5513 29.16ZM84.0734 20.84C84.8521 20.84 85.5401 21.0053 86.1374 21.336C86.7348 21.6667 87.1988 22.1467 87.5294 22.776C87.8708 23.3947 88.0414 24.136 88.0414 25C88.0414 25.864 87.8708 26.6107 87.5294 27.24C87.1988 27.8587 86.7348 28.3333 86.1374 28.664C85.5401 28.9947 84.8521 29.16 84.0734 29.16C83.2948 29.16 82.6068 28.9947 82.0094 28.664C81.4121 28.3333 80.9428 27.8587 80.6014 27.24C80.2601 26.6107 80.0894 25.864 80.0894 25C80.0894 24.136 80.2601 23.3947 80.6014 22.776C80.9428 22.1467 81.4121 21.6667 82.0094 21.336C82.6068 21.0053 83.2948 20.84 84.0734 20.84ZM84.0734 22.184C83.3694 22.184 82.8148 22.4293 82.4094 22.92C82.0041 23.4 81.8014 24.0933 81.8014 25C81.8014 25.9067 82.0041 26.6053 82.4094 27.096C82.8148 27.576 83.3694 27.816 84.0734 27.816C84.7774 27.816 85.3268 27.576 85.7214 27.096C86.1268 26.6053 86.3294 25.9067 86.3294 25C86.3294 24.0933 86.1268 23.4 85.7214 22.92C85.3268 22.4293 84.7774 22.184 84.0734 22.184ZM93.6672 20.84C94.4459 20.84 95.1339 21.0053 95.7312 21.336C96.3285 21.6667 96.7925 22.1467 97.1232 22.776C97.4645 23.3947 97.6352 24.136 97.6352 25C97.6352 25.864 97.4645 26.6107 97.1232 27.24C96.7925 27.8587 96.3285 28.3333 95.7312 28.664C95.1339 28.9947 94.4459 29.16 93.6672 29.16C92.8885 29.16 92.2005 28.9947 91.6032 28.664C91.0059 28.3333 90.5365 27.8587 90.1952 27.24C89.8539 26.6107 89.6832 25.864 89.6832 25C89.6832 24.136 89.8539 23.3947 90.1952 22.776C90.5365 22.1467 91.0059 21.6667 91.6032 21.336C92.2005 21.0053 92.8885 20.84 93.6672 20.84ZM93.6672 22.184C92.9632 22.184 92.4085 22.4293 92.0032 22.92C91.5979 23.4 91.3952 24.0933 91.3952 25C91.3952 25.9067 91.5979 26.6053 92.0032 27.096C92.4085 27.576 92.9632 27.816 93.6672 27.816C94.3712 27.816 94.9205 27.576 95.3152 27.096C95.7205 26.6053 95.9232 25.9067 95.9232 25C95.9232 24.0933 95.7205 23.4 95.3152 22.92C94.9205 22.4293 94.3712 22.184 93.6672 22.184ZM104.27 27.752C105.08 27.752 105.71 27.9333 106.158 28.296C106.606 28.648 106.83 29.1387 106.83 29.768C106.83 30.3333 106.654 30.8133 106.302 31.208C105.95 31.6133 105.47 31.9173 104.862 32.12C104.254 32.3333 103.566 32.44 102.798 32.44C101.475 32.44 100.499 32.2373 99.8697 31.832C99.251 31.4267 98.9417 30.92 98.9417 30.312C98.9417 29.9493 99.0484 29.624 99.2617 29.336C99.475 29.048 99.827 28.8507 100.318 28.744C100.019 28.616 99.7844 28.44 99.6137 28.216C99.443 27.9813 99.3577 27.6827 99.3577 27.32C99.3577 26.968 99.459 26.6587 99.6617 26.392C99.8644 26.1147 100.163 25.9067 100.558 25.768C99.715 25.288 99.2937 24.5467 99.2937 23.544C99.2937 22.7333 99.6084 22.0827 100.238 21.592C100.867 21.0907 101.699 20.84 102.734 20.84C103.406 20.84 103.998 20.9467 104.51 21.16C104.595 20.6267 104.83 20.1893 105.214 19.848C105.598 19.496 106.083 19.32 106.67 19.32C106.723 19.32 106.766 19.32 106.798 19.32L107.07 20.664C107.016 20.6533 106.952 20.648 106.878 20.648C105.96 20.648 105.448 20.984 105.342 21.656C105.907 22.1467 106.19 22.776 106.19 23.544C106.19 24.3653 105.875 25.0213 105.246 25.512C104.616 26.0027 103.779 26.248 102.734 26.248C102.296 26.248 101.896 26.2107 101.534 26.136C101.246 26.2107 101.038 26.328 100.91 26.488C100.792 26.6373 100.734 26.7973 100.734 26.968C100.734 27.4907 101.112 27.752 101.87 27.752H104.27ZM102.734 22.04C102.243 22.04 101.832 22.1787 101.502 22.456C101.182 22.7227 101.022 23.0853 101.022 23.544C101.022 24.0027 101.182 24.3707 101.502 24.648C101.832 24.9253 102.243 25.064 102.734 25.064C103.235 25.064 103.646 24.9253 103.966 24.648C104.296 24.3707 104.462 24.0027 104.462 23.544C104.462 23.0853 104.296 22.7227 103.966 22.456C103.646 22.1787 103.235 22.04 102.734 22.04ZM102.798 31.16C103.672 31.16 104.318 31.0427 104.734 30.808C105.16 30.5733 105.374 30.296 105.374 29.976C105.374 29.7307 105.272 29.5333 105.07 29.384C104.878 29.2347 104.526 29.16 104.014 29.16H101.438C101.128 29.16 100.872 29.24 100.67 29.4C100.478 29.56 100.382 29.768 100.382 30.024C100.382 30.376 100.595 30.6533 101.022 30.856C101.448 31.0587 102.04 31.16 102.798 31.16ZM110.062 17.4V26.76C110.062 27.1547 110.132 27.4267 110.27 27.576C110.409 27.7253 110.638 27.8 110.958 27.8C111.15 27.8 111.31 27.7893 111.438 27.768C111.577 27.736 111.748 27.6827 111.95 27.608L111.758 28.888C111.385 29.0693 110.942 29.16 110.43 29.16C109.716 29.16 109.188 28.9787 108.846 28.616C108.516 28.2533 108.35 27.6827 108.35 26.904V17.4H110.062ZM116.903 29.16C116.103 29.16 115.399 28.9947 114.791 28.664C114.193 28.3333 113.724 27.8587 113.383 27.24C113.041 26.6107 112.871 25.864 112.871 25C112.871 24.136 113.036 23.3947 113.367 22.776C113.708 22.1467 114.172 21.6667 114.759 21.336C115.356 21.0053 116.039 20.84 116.807 20.84C117.585 20.84 118.247 21 118.791 21.32C119.335 21.64 119.751 22.0773 120.039 22.632C120.327 23.1867 120.471 23.816 120.471 24.52C120.471 24.7227 120.465 24.9093 120.455 25.08C120.444 25.2507 120.428 25.3947 120.407 25.512H114.551C114.625 26.2587 114.865 26.8293 115.271 27.224C115.687 27.608 116.22 27.8 116.871 27.8C117.404 27.8 117.836 27.6987 118.167 27.496C118.497 27.2933 118.759 27.0107 118.951 26.648L120.311 27.288C120.033 27.8747 119.591 28.3333 118.983 28.664C118.385 28.9947 117.692 29.16 116.903 29.16ZM116.775 22.2C116.188 22.2 115.703 22.3707 115.319 22.712C114.945 23.0533 114.705 23.5493 114.599 24.2H118.807C118.764 23.56 118.561 23.0693 118.199 22.728C117.836 22.376 117.361 22.2 116.775 22.2Z" fill="white"/>
<g clip-path="url(#clip0)">
<rect width="0" height="0" transform="translate(1.05176)" fill="white"/>
</g>
<defs>
<clipPath id="clip0">
<rect width="0" height="0" fill="white" transform="translate(1.05176)"/>
</clipPath>
</defs>
</svg>
