<svg width="141" height="48" viewBox="0 0 141 48" fill="none" xmlns="http://www.w3.org/2000/svg">
<rect width="141" height="48" rx="4" fill="#1DA1F2"/>
<path d="M70.5724 18.44V19.912H66.9564V29H65.2444V19.912H61.6284V18.44H70.5724ZM81.7306 21H83.5866L80.8986 29H79.0266L77.0106 23.064L75.1066 29H73.2346L70.5626 21H72.4026L74.2266 27.32L76.2106 21H77.9226L79.9066 27.32L81.7306 21ZM86.1061 19.656C85.7327 19.656 85.4447 19.5653 85.2421 19.384C85.0501 19.192 84.9541 18.9253 84.9541 18.584C84.9541 18.2427 85.0501 17.9813 85.2421 17.8C85.4447 17.6187 85.7327 17.528 86.1061 17.528C86.4687 17.528 86.7461 17.6187 86.9381 17.8C87.1407 17.9813 87.2421 18.2427 87.2421 18.584C87.2421 18.9253 87.1407 19.192 86.9381 19.384C86.7461 19.5653 86.4687 19.656 86.1061 19.656ZM86.9541 21V29H85.2421V21H86.9541ZM94.7207 21V22.344H91.9687V26.6C91.9687 26.984 92.0754 27.272 92.2887 27.464C92.502 27.6453 92.7794 27.736 93.1207 27.736C93.4194 27.736 93.67 27.6933 93.8727 27.608C94.086 27.512 94.2834 27.384 94.4647 27.224L94.8487 28.472C94.6034 28.6853 94.2994 28.856 93.9367 28.984C93.5847 29.1013 93.19 29.16 92.7527 29.16C92.0487 29.16 91.4567 28.9893 90.9767 28.648C90.4967 28.296 90.2567 27.7093 90.2567 26.888V22.344H88.7207V21H90.2567V19.128L91.9687 18.648V21H94.7207ZM100.611 21V22.344H97.8593V26.6C97.8593 26.984 97.966 27.272 98.1793 27.464C98.3926 27.6453 98.67 27.736 99.0113 27.736C99.31 27.736 99.5606 27.6933 99.7633 27.608C99.9766 27.512 100.174 27.384 100.355 27.224L100.739 28.472C100.494 28.6853 100.19 28.856 99.8273 28.984C99.4753 29.1013 99.0806 29.16 98.6433 29.16C97.9393 29.16 97.3473 28.9893 96.8673 28.648C96.3873 28.296 96.1473 27.7093 96.1473 26.888V22.344H94.6113V21H96.1473V19.128L97.8593 18.648V21H100.611ZM105.825 29.16C105.025 29.16 104.321 28.9947 103.713 28.664C103.115 28.3333 102.646 27.8587 102.305 27.24C101.963 26.6107 101.793 25.864 101.793 25C101.793 24.136 101.958 23.3947 102.289 22.776C102.63 22.1467 103.094 21.6667 103.681 21.336C104.278 21.0053 104.961 20.84 105.729 20.84C106.507 20.84 107.169 21 107.713 21.32C108.257 21.64 108.673 22.0773 108.961 22.632C109.249 23.1867 109.393 23.816 109.393 24.52C109.393 24.7227 109.387 24.9093 109.377 25.08C109.366 25.2507 109.35 25.3947 109.329 25.512H103.473C103.547 26.2587 103.787 26.8293 104.193 27.224C104.609 27.608 105.142 27.8 105.793 27.8C106.326 27.8 106.758 27.6987 107.089 27.496C107.419 27.2933 107.681 27.0107 107.873 26.648L109.233 27.288C108.955 27.8747 108.513 28.3333 107.905 28.664C107.307 28.9947 106.614 29.16 105.825 29.16ZM105.697 22.2C105.11 22.2 104.625 22.3707 104.241 22.712C103.867 23.0533 103.627 23.5493 103.521 24.2H107.729C107.686 23.56 107.483 23.0693 107.121 22.728C106.758 22.376 106.283 22.2 105.697 22.2ZM111.555 29V21H113.011L113.171 22.44C113.608 21.3733 114.445 20.84 115.683 20.84C115.843 20.84 116.003 20.856 116.163 20.888C116.323 20.9093 116.456 20.9467 116.563 21L116.323 22.504C116.205 22.4613 116.072 22.4293 115.923 22.408C115.784 22.376 115.592 22.36 115.347 22.36C115.005 22.36 114.675 22.4507 114.355 22.632C114.045 22.8027 113.784 23.0693 113.571 23.432C113.368 23.784 113.267 24.2267 113.267 24.76V29H111.555Z" fill="white"/>
<path d="M20.5478 33.513C29.6048 33.513 34.5577 26.0065 34.5577 19.4975C34.5577 19.2842 34.5533 19.0718 34.5436 18.8606C35.5049 18.1654 36.3407 17.2979 37 16.3101C36.1177 16.7022 35.1682 16.9665 34.1722 17.0855C35.1889 16.4759 35.9693 15.5109 36.3374 14.3607C35.3859 14.925 34.3324 15.3353 33.2109 15.5563C32.3124 14.5989 31.0327 14 29.6167 14C26.8972 14 24.692 16.2061 24.692 18.9257C24.692 19.3123 24.7353 19.6881 24.8197 20.0488C20.7275 19.843 17.0987 17.8828 14.6704 14.9022C14.2471 15.63 14.0035 16.4759 14.0035 17.378C14.0035 19.0871 14.8729 20.5958 16.1947 21.4784C15.3871 21.4535 14.6282 21.2315 13.9646 20.8621C13.9635 20.8826 13.9635 20.9033 13.9635 20.9249C13.9635 23.3109 15.661 25.3026 17.9139 25.7542C17.5004 25.8668 17.0651 25.9275 16.6158 25.9275C16.2987 25.9275 15.9901 25.8961 15.6902 25.8386C16.3171 27.7957 18.1348 29.2199 20.2901 29.26C18.6046 30.5812 16.4816 31.3686 14.1746 31.3686C13.7773 31.3686 13.3854 31.3459 13 31.3004C15.1792 32.6975 17.7667 33.513 20.5478 33.513Z" fill="white"/>
</svg>
