<svg width="24" height="20" viewBox="0 0 24 20" fill="none" xmlns="http://www.w3.org/2000/svg">
<path d="M7.54781 19.513C16.6048 19.513 21.5577 12.0065 21.5577 5.49747C21.5577 5.28417 21.5533 5.07183 21.5436 4.86064C22.5049 4.16541 23.3407 3.29789 24 2.31012C23.1177 2.70216 22.1682 2.96646 21.1722 3.08554C22.1889 2.47589 22.9693 1.51089 23.3374 0.360723C22.3859 0.924953 21.3324 1.33533 20.2109 1.55631C19.3124 0.5989 18.0327 0 16.6167 0C13.8972 0 11.692 2.20611 11.692 4.92565C11.692 5.31231 11.7353 5.68811 11.8197 6.04883C7.72752 5.84302 4.09872 3.88277 1.67044 0.902191C1.24714 1.62998 1.00354 2.47589 1.00354 3.37798C1.00354 5.0871 1.8729 6.59577 3.19469 7.47837C2.3871 7.4535 1.62821 7.23146 0.964579 6.86209C0.963485 6.88264 0.963485 6.90329 0.963485 6.9249C0.963485 9.3109 2.66102 11.3026 4.91386 11.7542C4.50038 11.8668 4.06512 11.9275 3.61584 11.9275C3.29866 11.9275 2.99011 11.8961 2.69021 11.8386C3.31709 13.7957 5.13475 15.2199 7.29014 15.26C5.60458 16.5812 3.48163 17.3686 1.17461 17.3686C0.777302 17.3686 0.385392 17.3459 0 17.3004C2.17924 18.6975 4.76669 19.513 7.54781 19.513Z" fill="white"/>
</svg>
